<svg id="kity_svg_6" xmlns="http://www.w3.org/2000/svg" xmlns:xlink="http://www.w3.org/1999/xlink" version="1.1" width="1200" height="806" style="visibility: visible; background: rgb(251, 251, 251);" viewBox="0 0 1200 806"><defs id="kity_defs_7"><linearGradient id="kity_linearGradient_17" x1="0" y1="0" x2="0" y2="1"><stop id="kity_stop_18" offset="0" stop-color="rgb(255, 255, 255)"></stop><stop id="kity_stop_19" offset="1" stop-color="rgb(204, 204, 204)"></stop></linearGradient><marker id="kity_marker_2" orient="auto" refX="6" refY="0" viewBox="-7 -7 14 14" markerWidth="7" markerHeight="7" markerUnits="userSpaceOnUse"><path id="kity_path_3" fill="rgb(115, 161, 191)" stroke="none" d="M6,0A6,6,0,1,1,-6,0A6,6,0,1,1,6,0"></path></marker></defs><g id="kity_g_8"><g id="minder1" text-rendering="optimize-speed"><g id="minder_connect_group1"><path id="kity_path_31" fill="none" stroke="rgb(115, 161, 191)" stroke-width="1" d="M589.5,428.5A204,345,0,0,1,793.5,83.5"></path><path id="kity_path_39" fill="none" stroke="rgb(115, 161, 191)" stroke-width="1" d="M1008.5,83.5C1023.5,83.5,1023.5,45.5,1038.5,45.5L1138.5,45.5"></path><path id="kity_path_47" fill="none" stroke="rgb(115, 161, 191)" stroke-width="1" d="M1008.5,83.5C1023.5,83.5,1023.5,97.5,1038.5,97.5L1122.5,97.5"></path><path id="kity_path_55" fill="none" stroke="rgb(115, 161, 191)" stroke-width="1" d="M1008.5,83.5C1023.5,83.5,1023.5,149.5,1038.5,149.5L1180.5,149.5"></path><path id="kity_path_63" fill="none" stroke="rgb(115, 161, 191)" stroke-width="1" d="M589.5,428.5A204,179,0,0,1,793.5,249.5"></path><path id="kity_path_71" fill="none" stroke="rgb(115, 161, 191)" stroke-width="1" d="M913.5,249.5C928.5,249.5,928.5,211.5,943.5,211.5L1033.5,211.5"></path><path id="kity_path_79" fill="none" stroke="rgb(115, 161, 191)" stroke-width="1" d="M913.5,249.5C928.5,249.5,928.5,263.5,943.5,263.5L1045.5,263.5"></path><path id="kity_path_87" fill="none" stroke="rgb(115, 161, 191)" stroke-width="1" d="M913.5,249.5C928.5,249.5,928.5,315.5,943.5,315.5L1115.5,315.5"></path><path id="kity_path_95" fill="none" stroke="rgb(115, 161, 191)" stroke-width="1" d="M589.5,428.5A204,63,0,0,1,793.5,365.5"></path><path id="kity_path_103" fill="none" stroke="rgb(115, 161, 191)" stroke-width="1" d="M589.5,428.5A204,27,0,0,0,793.5,455.5"></path><path id="kity_path_111" fill="none" stroke="rgb(115, 161, 191)" stroke-width="1" d="M983.5,455.5C998.5,455.5,998.5,443.5,1013.5,443.5L1099.5,443.5"></path><path id="kity_path_119" fill="none" stroke="rgb(115, 161, 191)" stroke-width="1" d="M983.5,455.5C998.5,455.5,998.5,495.5,1013.5,495.5L1100.5,495.5"></path><path id="kity_path_127" fill="none" stroke="rgb(115, 161, 191)" stroke-width="1" d="M589.5,428.5A204,141,0,0,0,793.5,569.5"></path><path id="kity_path_135" fill="none" stroke="rgb(115, 161, 191)" stroke-width="1" d="M983.5,569.5C998.5,569.5,998.5,557.5,1013.5,557.5L1108.5,557.5"></path><path id="kity_path_143" fill="none" stroke="rgb(115, 161, 191)" stroke-width="1" d="M983.5,569.5C998.5,569.5,998.5,609.5,1013.5,609.5L1103.5,609.5"></path><path id="kity_path_151" fill="none" stroke="rgb(115, 161, 191)" stroke-width="1" d="M589.5,428.5A204,255,0,0,0,793.5,683.5"></path><path id="kity_path_159" fill="none" stroke="rgb(115, 161, 191)" stroke-width="1" d="M969.5,683.5C984.5,683.5,984.5,671.5,999.5,671.5L1142.5,671.5"></path><path id="kity_path_167" fill="none" stroke="rgb(115, 161, 191)" stroke-width="1" d="M969.5,683.5C984.5,683.5,984.5,723.5,999.5,723.5L1113.5,723.5"></path><path id="kity_path_175" fill="none" stroke="rgb(115, 161, 191)" stroke-width="1" d="M589.5,428.5A204,345,0,0,0,793.5,773.5"></path><path id="kity_path_183" fill="none" stroke="rgb(115, 161, 191)" stroke-width="1" d="M589.5,428.5A204,107,0,0,0,385.5,321.5"></path><path id="kity_path_191" fill="none" stroke="rgb(115, 161, 191)" stroke-width="1" d="M198.5,321.5C183.5,321.5,183.5,309.5,168.5,309.5L20.5,309.5"></path><path id="kity_path_199" fill="none" stroke="rgb(115, 161, 191)" stroke-width="1" d="M198.5,321.5C183.5,321.5,183.5,361.5,168.5,361.5L34.5,361.5"></path><path id="kity_path_207" fill="none" stroke="rgb(115, 161, 191)" stroke-width="1" d="M589.5,428.5A204,17,0,0,0,385.5,411.5"></path><path id="kity_path_223" fill="none" stroke="rgb(115, 161, 191)" stroke-width="1" d="M589.5,428.5A204,49,0,0,1,385.5,477.5"></path><path id="kity_path_231" fill="none" stroke="rgb(115, 161, 191)" stroke-width="1" d="M589.5,428.5A204,247,0,0,0,385.5,181.5"></path><path id="kity_path_239" fill="none" stroke="rgb(115, 161, 191)" stroke-width="1" d="M265.5,181.5C250.5,181.5,250.5,143.5,235.5,143.5L97.5,143.5"></path><path id="kity_path_247" fill="none" stroke="rgb(115, 161, 191)" stroke-width="1" d="M265.5,181.5C250.5,181.5,250.5,195.5,235.5,195.5L164.5,195.5"></path><path id="kity_path_255" fill="none" stroke="rgb(115, 161, 191)" stroke-width="1" d="M265.5,181.5C250.5,181.5,250.5,247.5,235.5,247.5L140.5,247.5"></path><path id="kity_path_263" fill="none" stroke="rgb(115, 161, 191)" stroke-width="1" d="M589.5,428.5A204,115,0,0,1,385.5,543.5"></path><path id="kity_path_271" fill="none" stroke="rgb(115, 161, 191)" stroke-width="1" d="M257.5,543.5C242.5,543.5,242.5,557.5,227.5,557.5L114.5,557.5"></path><path id="kity_path_279" fill="none" stroke="rgb(115, 161, 191)" stroke-width="1" d="M589.5,428.5A204,181,0,0,1,385.5,609.5"></path><path id="kity_path_287" fill="none" stroke="rgb(115, 161, 191)" stroke-width="1" d="M589.5,428.5A204,247,0,0,1,385.5,675.5"></path></g><g id="minder_node1"><path id="node_outline1" fill="rgb(115, 161, 191)" stroke="rgb(115, 161, 191)" d="M508.5,408.5h162a5,5,0,0,1,5,5v30a5,5,0,0,1,-5,5h-162a5,5,0,0,1,-5,-5v-30a5,5,0,0,1,5,-5z" stroke-width="3"></path><g id="node_text1" fill="white"><text id="kity_text_22" text-rendering="inherit" font-size="16" dy=".8em" y="418.09999990463257" x="527.5">Mybatis学习体系</text></g></g><g id="kity_g_12"><path id="kity_path_13" fill="none" stroke="none" d="M527.5,428.5h0v0h0z"></path></g><g id="kity_g_14"><path id="kity_path_15" fill="none" stroke="none" d="M527.5,428.5h0v0h0z"></path><path id="kity_path_16" fill="none" stroke="none"></path></g><g id="minder_node2"><g id="node_expander1" style="cursor: pointer;"><path id="kity_path_36" fill="white" stroke="gray" d="M794.5,83.5A6,6,0,1,1,782.5,83.5A6,6,0,1,1,794.5,83.5"></path><path id="kity_path_37" fill="none" stroke="gray" d="M784,83.5L793,83.5"></path></g><path id="node_outline2" fill="rgb(238, 243, 246)" stroke="rgb(115, 161, 191)" d="M798.5,70.5h207a3,3,0,0,1,3,3v20a3,3,0,0,1,-3,3h-207a3,3,0,0,1,-3,-3v-20a3,3,0,0,1,3,-3z" stroke-width="1"></path><g id="node_text2" fill="black"><text id="kity_text_33" text-rendering="inherit" font-size="14" dy=".8em" y="74.40000009536743" x="815.5">1、课程体系及初识Mybatis</text></g></g><g id="minder_node3"><g id="node_expander2" style="cursor: pointer;" display="none"><path id="kity_path_44" fill="white" stroke="gray" d="M1048.5,31.5A6,6,0,1,1,1036.5,31.5A6,6,0,1,1,1048.5,31.5"></path><path id="kity_path_45" fill="none" stroke="gray"></path></g><path id="node_outline3" fill="none" stroke="none" d="M1053.5,20.5h80a5,5,0,0,1,5,5v12a5,5,0,0,1,-5,5h-80a5,5,0,0,1,-5,-5v-12a5,5,0,0,1,5,-5z" stroke-width="3"></path><g id="node_text3" fill="black"><text id="kity_text_41" text-rendering="inherit" font-size="12" dy=".8em" y="23.700000047683716" x="1058.5">Mybatis介绍</text></g></g><g id="minder_node4"><g id="node_expander3" style="cursor: pointer;" display="none"><path id="kity_path_52" fill="white" stroke="gray" d="M1048.5,83.5A6,6,0,1,1,1036.5,83.5A6,6,0,1,1,1048.5,83.5"></path><path id="kity_path_53" fill="none" stroke="gray"></path></g><path id="node_outline4" fill="none" stroke="none" d="M1053.5,72.5h64a5,5,0,0,1,5,5v12a5,5,0,0,1,-5,5h-64a5,5,0,0,1,-5,-5v-12a5,5,0,0,1,5,-5z" stroke-width="3"></path><g id="node_text4" fill="black"><text id="kity_text_49" text-rendering="inherit" font-size="12" dy=".8em" y="75.70000004768372" x="1058.5">ORM介绍</text></g></g><g id="minder_node5"><g id="node_expander4" style="cursor: pointer;" display="none"><path id="kity_path_60" fill="white" stroke="gray" d="M1048.5,135.5A6,6,0,1,1,1036.5,135.5A6,6,0,1,1,1048.5,135.5"></path><path id="kity_path_61" fill="none" stroke="gray"></path></g><path id="node_outline5" fill="none" stroke="none" d="M1053.5,124.5h122a5,5,0,0,1,5,5v12a5,5,0,0,1,-5,5h-122a5,5,0,0,1,-5,-5v-12a5,5,0,0,1,5,-5z" stroke-width="3"></path><g id="node_text5" fill="black"><text id="kity_text_57" text-rendering="inherit" font-size="12" dy=".8em" y="127.70000004768372" x="1058.5">Mybatis与JDBC对比</text></g></g><g id="minder_node6"><g id="node_expander5" style="cursor: pointer;"><path id="kity_path_68" fill="white" stroke="gray" d="M794.5,249.5A6,6,0,1,1,782.5,249.5A6,6,0,1,1,794.5,249.5"></path><path id="kity_path_69" fill="none" stroke="gray" d="M784,249.5L793,249.5"></path></g><path id="node_outline6" fill="rgb(238, 243, 246)" stroke="rgb(115, 161, 191)" d="M798.5,236.5h112a3,3,0,0,1,3,3v20a3,3,0,0,1,-3,3h-112a3,3,0,0,1,-3,-3v-20a3,3,0,0,1,3,-3z" stroke-width="1"></path><g id="node_text6" fill="black"><text id="kity_text_65" text-rendering="inherit" font-size="14" dy=".8em" y="240.40000009536743" x="815.5">2、学前准备</text></g></g><g id="minder_node7"><g id="node_expander6" style="cursor: pointer;" display="none"><path id="kity_path_76" fill="white" stroke="gray" d="M953.5,197.5A6,6,0,1,1,941.5,197.5A6,6,0,1,1,953.5,197.5"></path><path id="kity_path_77" fill="none" stroke="gray"></path></g><path id="node_outline7" fill="none" stroke="none" d="M958.5,186.5h70a5,5,0,0,1,5,5v12a5,5,0,0,1,-5,5h-70a5,5,0,0,1,-5,-5v-12a5,5,0,0,1,5,-5z" stroke-width="3"></path><g id="node_text7" fill="black"><text id="kity_text_73" text-rendering="inherit" font-size="12" dy=".8em" y="189.70000004768372" x="963.5">储备知识点</text></g></g><g id="minder_node8"><g id="node_expander7" style="cursor: pointer;" display="none"><path id="kity_path_84" fill="white" stroke="gray" d="M953.5,249.5A6,6,0,1,1,941.5,249.5A6,6,0,1,1,953.5,249.5"></path><path id="kity_path_85" fill="none" stroke="gray"></path></g><path id="node_outline8" fill="none" stroke="none" d="M958.5,238.5h82a5,5,0,0,1,5,5v12a5,5,0,0,1,-5,5h-82a5,5,0,0,1,-5,-5v-12a5,5,0,0,1,5,-5z" stroke-width="3"></path><g id="node_text8" fill="black"><text id="kity_text_81" text-rendering="inherit" font-size="12" dy=".8em" y="241.70000004768372" x="963.5">本地环境介绍</text></g></g><g id="minder_node9"><g id="node_expander8" style="cursor: pointer;" display="none"><path id="kity_path_92" fill="white" stroke="gray" d="M953.5,301.5A6,6,0,1,1,941.5,301.5A6,6,0,1,1,953.5,301.5"></path><path id="kity_path_93" fill="none" stroke="gray"></path></g><path id="node_outline9" fill="none" stroke="none" d="M958.5,290.5h152a5,5,0,0,1,5,5v12a5,5,0,0,1,-5,5h-152a5,5,0,0,1,-5,-5v-12a5,5,0,0,1,5,-5z" stroke-width="3"></path><g id="node_text9" fill="black"><text id="kity_text_89" text-rendering="inherit" font-size="12" dy=".8em" y="293.7000000476837" x="963.5">Mybatis框架提示模板配置</text></g></g><g id="minder_node10"><g id="node_expander9" style="cursor: pointer;" display="none"><path id="kity_path_100" fill="white" stroke="gray" d="M794.5,365.5A6,6,0,1,1,782.5,365.5A6,6,0,1,1,794.5,365.5"></path><path id="kity_path_101" fill="none" stroke="gray"></path></g><path id="node_outline10" fill="rgb(238, 243, 246)" stroke="rgb(115, 161, 191)" d="M798.5,352.5h165a3,3,0,0,1,3,3v20a3,3,0,0,1,-3,3h-165a3,3,0,0,1,-3,-3v-20a3,3,0,0,1,3,-3z" stroke-width="1"></path><g id="node_text10" fill="black"><text id="kity_text_97" text-rendering="inherit" font-size="14" dy=".8em" y="356.40000009536743" x="815.5">3、Mybatis环境搭建</text></g></g><g id="minder_node11"><g id="node_expander10" style="cursor: pointer;"><path id="kity_path_108" fill="white" stroke="gray" d="M794.5,455.5A6,6,0,1,1,782.5,455.5A6,6,0,1,1,794.5,455.5"></path><path id="kity_path_109" fill="none" stroke="gray" d="M784,455.5L793,455.5"></path></g><path id="node_outline11" fill="rgb(238, 243, 246)" stroke="rgb(115, 161, 191)" d="M798.5,442.5h182a3,3,0,0,1,3,3v20a3,3,0,0,1,-3,3h-182a3,3,0,0,1,-3,-3v-20a3,3,0,0,1,3,-3z" stroke-width="1"></path><g id="node_text11" fill="black"><text id="kity_text_105" text-rendering="inherit" font-size="14" dy=".8em" y="446.40000009536743" x="815.5">4、添加数据与查询数据</text></g></g><g id="minder_node12"><g id="node_expander11" style="cursor: pointer;" display="none"><path id="kity_path_116" fill="white" stroke="gray" d="M1023.5,429.5A6,6,0,1,1,1011.5,429.5A6,6,0,1,1,1023.5,429.5"></path><path id="kity_path_117" fill="none" stroke="gray"></path></g><path id="node_outline12" fill="none" stroke="none" d="M1028.5,418.5h66a5,5,0,0,1,5,5v12a5,5,0,0,1,-5,5h-66a5,5,0,0,1,-5,-5v-12a5,5,0,0,1,5,-5z" stroke-width="3"></path><g id="node_text12" fill="black"><text id="kity_text_113" text-rendering="inherit" font-size="12" dy=".8em" y="421.7000000476837" x="1033.5">insert标签</text></g></g><g id="minder_node13"><g id="node_expander12" style="cursor: pointer;" display="none"><path id="kity_path_124" fill="white" stroke="gray" d="M1023.5,481.5A6,6,0,1,1,1011.5,481.5A6,6,0,1,1,1023.5,481.5"></path><path id="kity_path_125" fill="none" stroke="gray"></path></g><path id="node_outline13" fill="none" stroke="none" d="M1028.5,470.5h67a5,5,0,0,1,5,5v12a5,5,0,0,1,-5,5h-67a5,5,0,0,1,-5,-5v-12a5,5,0,0,1,5,-5z" stroke-width="3"></path><g id="node_text13" fill="black"><text id="kity_text_121" text-rendering="inherit" font-size="12" dy=".8em" y="473.7000000476837" x="1033.5">select标签</text></g></g><g id="minder_node14"><g id="node_expander13" style="cursor: pointer;"><path id="kity_path_132" fill="white" stroke="gray" d="M794.5,569.5A6,6,0,1,1,782.5,569.5A6,6,0,1,1,794.5,569.5"></path><path id="kity_path_133" fill="none" stroke="gray" d="M784,569.5L793,569.5"></path></g><path id="node_outline14" fill="rgb(238, 243, 246)" stroke="rgb(115, 161, 191)" d="M798.5,556.5h182a3,3,0,0,1,3,3v20a3,3,0,0,1,-3,3h-182a3,3,0,0,1,-3,-3v-20a3,3,0,0,1,3,-3z" stroke-width="1"></path><g id="node_text14" fill="black"><text id="kity_text_129" text-rendering="inherit" font-size="14" dy=".8em" y="560.4000000953674" x="815.5">5、修改数据与删除数据</text></g></g><g id="minder_node15"><g id="node_expander14" style="cursor: pointer;" display="none"><path id="kity_path_140" fill="white" stroke="gray" d="M1023.5,543.5A6,6,0,1,1,1011.5,543.5A6,6,0,1,1,1023.5,543.5"></path><path id="kity_path_141" fill="none" stroke="gray"></path></g><path id="node_outline15" fill="none" stroke="none" d="M1028.5,532.5h75a5,5,0,0,1,5,5v12a5,5,0,0,1,-5,5h-75a5,5,0,0,1,-5,-5v-12a5,5,0,0,1,5,-5z" stroke-width="3"></path><g id="node_text15" fill="black"><text id="kity_text_137" text-rendering="inherit" font-size="12" dy=".8em" y="535.7000000476837" x="1033.5">update标签</text></g></g><g id="minder_node16"><g id="node_expander15" style="cursor: pointer;" display="none"><path id="kity_path_148" fill="white" stroke="gray" d="M1023.5,595.5A6,6,0,1,1,1011.5,595.5A6,6,0,1,1,1023.5,595.5"></path><path id="kity_path_149" fill="none" stroke="gray"></path></g><path id="node_outline16" fill="none" stroke="none" d="M1028.5,584.5h70a5,5,0,0,1,5,5v12a5,5,0,0,1,-5,5h-70a5,5,0,0,1,-5,-5v-12a5,5,0,0,1,5,-5z" stroke-width="3"></path><g id="node_text16" fill="black"><text id="kity_text_145" text-rendering="inherit" font-size="12" dy=".8em" y="587.7000000476837" x="1033.5">delete标签</text></g></g><g id="minder_node17"><g id="node_expander16" style="cursor: pointer;"><path id="kity_path_156" fill="white" stroke="gray" d="M794.5,683.5A6,6,0,1,1,782.5,683.5A6,6,0,1,1,794.5,683.5"></path><path id="kity_path_157" fill="none" stroke="gray" d="M784,683.5L793,683.5"></path></g><path id="node_outline17" fill="rgb(238, 243, 246)" stroke="rgb(115, 161, 191)" d="M798.5,670.5h168a3,3,0,0,1,3,3v20a3,3,0,0,1,-3,3h-168a3,3,0,0,1,-3,-3v-20a3,3,0,0,1,3,-3z" stroke-width="1"></path><g id="node_text17" fill="black"><text id="kity_text_153" text-rendering="inherit" font-size="14" dy=".8em" y="674.4000000953674" x="815.5">6、带条件的查询语句</text></g></g><g id="minder_node18"><g id="node_expander17" style="cursor: pointer;" display="none"><path id="kity_path_164" fill="white" stroke="gray" d="M1009.5,657.5A6,6,0,1,1,997.5,657.5A6,6,0,1,1,1009.5,657.5"></path><path id="kity_path_165" fill="none" stroke="gray"></path></g><path id="node_outline18" fill="none" stroke="none" d="M1014.5,646.5h123a5,5,0,0,1,5,5v12a5,5,0,0,1,-5,5h-123a5,5,0,0,1,-5,-5v-12a5,5,0,0,1,5,-5z" stroke-width="3"></path><g id="node_text18" fill="black"><text id="kity_text_161" text-rendering="inherit" font-size="12" dy=".8em" y="649.7000000476837" x="1019.5">parameterType详解</text></g></g><g id="minder_node19"><g id="node_expander18" style="cursor: pointer;" display="none"><path id="kity_path_172" fill="white" stroke="gray" d="M1009.5,709.5A6,6,0,1,1,997.5,709.5A6,6,0,1,1,1009.5,709.5"></path><path id="kity_path_173" fill="none" stroke="gray"></path></g><path id="node_outline19" fill="none" stroke="none" d="M1014.5,698.5h94a5,5,0,0,1,5,5v12a5,5,0,0,1,-5,5h-94a5,5,0,0,1,-5,-5v-12a5,5,0,0,1,5,-5z" stroke-width="3"></path><g id="node_text19" fill="black"><text id="kity_text_169" text-rendering="inherit" font-size="12" dy=".8em" y="701.7000000476837" x="1019.5">resultType详解</text></g></g><g id="minder_node20"><g id="node_expander19" style="cursor: pointer;" display="none"><path id="kity_path_180" fill="white" stroke="gray" d="M794.5,773.5A6,6,0,1,1,782.5,773.5A6,6,0,1,1,794.5,773.5"></path><path id="kity_path_181" fill="none" stroke="gray"></path></g><path id="node_outline20" fill="rgb(238, 243, 246)" stroke="rgb(115, 161, 191)" d="M798.5,760.5h146a3,3,0,0,1,3,3v20a3,3,0,0,1,-3,3h-146a3,3,0,0,1,-3,-3v-20a3,3,0,0,1,3,-3z" stroke-width="1"></path><g id="node_text20" fill="black"><text id="kity_text_177" text-rendering="inherit" font-size="14" dy=".8em" y="764.4000000953674" x="815.5">7、ORM属于详解</text></g></g><g id="minder_node21"><g id="node_expander20" style="cursor: pointer;"><path id="kity_path_188" fill="white" stroke="gray" d="M396.5,321.5A6,6,0,1,1,384.5,321.5A6,6,0,1,1,396.5,321.5"></path><path id="kity_path_189" fill="none" stroke="gray" d="M386,321.5L395,321.5"></path></g><path id="node_outline21" fill="rgb(238, 243, 246)" stroke="rgb(115, 161, 191)" d="M201.5,308.5h179a3,3,0,0,1,3,3v20a3,3,0,0,1,-3,3h-179a3,3,0,0,1,-3,-3v-20a3,3,0,0,1,3,-3z" stroke-width="1"></path><g id="node_text21" fill="black"><text id="kity_text_185" text-rendering="inherit" font-size="14" dy=".8em" y="312.40000009536743" x="218.5">9、Mybatis中特殊符号</text></g></g><g id="minder_node22"><g id="node_expander21" style="cursor: pointer;" display="none"><path id="kity_path_196" fill="white" stroke="gray" d="M170.5,295.5A6,6,0,1,1,158.5,295.5A6,6,0,1,1,170.5,295.5"></path><path id="kity_path_197" fill="none" stroke="gray"></path></g><path id="node_outline22" fill="none" stroke="none" d="M25.5,284.5h128a5,5,0,0,1,5,5v12a5,5,0,0,1,-5,5h-128a5,5,0,0,1,-5,-5v-12a5,5,0,0,1,5,-5z" stroke-width="3"></path><g id="node_text22" fill="black"><text id="kity_text_193" text-rendering="inherit" font-size="12" dy=".8em" y="287.7000000476837" x="30.5">&gt;(大于号)、&lt;(小于号)</text></g></g><g id="minder_node23"><g id="node_expander22" style="cursor: pointer;" display="none"><path id="kity_path_204" fill="white" stroke="gray" d="M170.5,347.5A6,6,0,1,1,158.5,347.5A6,6,0,1,1,170.5,347.5"></path><path id="kity_path_205" fill="none" stroke="gray"></path></g><path id="node_outline23" fill="none" stroke="none" d="M39.5,336.5h114a5,5,0,0,1,5,5v12a5,5,0,0,1,-5,5h-114a5,5,0,0,1,-5,-5v-12a5,5,0,0,1,5,-5z" stroke-width="3"></path><g id="node_text23" fill="black"><text id="kity_text_201" text-rendering="inherit" font-size="12" dy=".8em" y="339.7000000476837" x="44.5">$、#、sql注入讲解</text></g></g><g id="minder_node24"><g id="node_expander23" style="cursor: pointer;" display="none"><path id="kity_path_212" fill="white" stroke="gray" d="M396.5,411.5A6,6,0,1,1,384.5,411.5A6,6,0,1,1,396.5,411.5"></path><path id="kity_path_213" fill="none" stroke="gray" d="M386,411.5L395,411.5"></path></g><path id="node_outline24" fill="rgb(238, 243, 246)" stroke="rgb(115, 161, 191)" d="M213.5,398.5h167a3,3,0,0,1,3,3v20a3,3,0,0,1,-3,3h-167a3,3,0,0,1,-3,-3v-20a3,3,0,0,1,3,-3z" stroke-width="1"></path><g id="node_text24" fill="black"><text id="kity_text_209" text-rendering="inherit" font-size="14" dy=".8em" y="402.40000009536743" x="230.5">10、动态sql查询语句</text></g></g><g id="minder_node26"><g id="node_expander25" style="cursor: pointer;" display="none"><path id="kity_path_228" fill="white" stroke="gray" d="M396.5,477.5A6,6,0,1,1,384.5,477.5A6,6,0,1,1,396.5,477.5"></path><path id="kity_path_229" fill="none" stroke="gray"></path></g><path id="node_outline26" fill="rgb(238, 243, 246)" stroke="rgb(115, 161, 191)" d="M213.5,464.5h167a3,3,0,0,1,3,3v20a3,3,0,0,1,-3,3h-167a3,3,0,0,1,-3,-3v-20a3,3,0,0,1,3,-3z" stroke-width="1"></path><g id="node_text26" fill="black"><text id="kity_text_225" text-rendering="inherit" font-size="14" dy=".8em" y="468.40000009536743" x="230.5">11、动态sql修改语句</text></g></g><g id="minder_node27"><g id="node_expander26" style="cursor: pointer;"><path id="kity_path_236" fill="white" stroke="gray" d="M396.5,181.5A6,6,0,1,1,384.5,181.5A6,6,0,1,1,396.5,181.5"></path><path id="kity_path_237" fill="none" stroke="gray" d="M386,181.5L395,181.5"></path></g><path id="node_outline27" fill="rgb(238, 243, 246)" stroke="rgb(115, 161, 191)" d="M268.5,168.5h112a3,3,0,0,1,3,3v20a3,3,0,0,1,-3,3h-112a3,3,0,0,1,-3,-3v-20a3,3,0,0,1,3,-3z" stroke-width="1"></path><g id="node_text27" fill="black"><text id="kity_text_233" text-rendering="inherit" font-size="14" dy=".8em" y="172.40000009536743" x="285.5">8、其他标签</text></g></g><g id="minder_node28"><g id="node_expander27" style="cursor: pointer;" display="none"><path id="kity_path_244" fill="white" stroke="gray" d="M237.5,129.5A6,6,0,1,1,225.5,129.5A6,6,0,1,1,237.5,129.5"></path><path id="kity_path_245" fill="none" stroke="gray"></path></g><path id="node_outline28" fill="none" stroke="none" d="M102.5,118.5h118a5,5,0,0,1,5,5v12a5,5,0,0,1,-5,5h-118a5,5,0,0,1,-5,-5v-12a5,5,0,0,1,5,-5z" stroke-width="3"></path><g id="node_text28" fill="black"><text id="kity_text_241" text-rendering="inherit" font-size="12" dy=".8em" y="121.70000004768372" x="107.5">别名(typeAlias标签)</text></g></g><g id="minder_node29"><g id="node_expander28" style="cursor: pointer;" display="none"><path id="kity_path_252" fill="white" stroke="gray" d="M237.5,181.5A6,6,0,1,1,225.5,181.5A6,6,0,1,1,237.5,181.5"></path><path id="kity_path_253" fill="none" stroke="gray"></path></g><path id="node_outline29" fill="none" stroke="none" d="M169.5,170.5h51a5,5,0,0,1,5,5v12a5,5,0,0,1,-5,5h-51a5,5,0,0,1,-5,-5v-12a5,5,0,0,1,5,-5z" stroke-width="3"></path><g id="node_text29" fill="black"><text id="kity_text_249" text-rendering="inherit" font-size="12" dy=".8em" y="173.70000004768372" x="174.5">sql标签</text></g></g><g id="minder_node30"><g id="node_expander29" style="cursor: pointer;" display="none"><path id="kity_path_260" fill="white" stroke="gray" d="M237.5,233.5A6,6,0,1,1,225.5,233.5A6,6,0,1,1,237.5,233.5"></path><path id="kity_path_261" fill="none" stroke="gray"></path></g><path id="node_outline30" fill="none" stroke="none" d="M145.5,222.5h75a5,5,0,0,1,5,5v12a5,5,0,0,1,-5,5h-75a5,5,0,0,1,-5,-5v-12a5,5,0,0,1,5,-5z" stroke-width="3"></path><g id="node_text30" fill="black"><text id="kity_text_257" text-rendering="inherit" font-size="12" dy=".8em" y="225.70000004768372" x="150.5">include标签</text></g></g><g id="minder_node31"><g id="node_expander30" style="cursor: pointer;"><path id="kity_path_268" fill="white" stroke="gray" d="M396.5,543.5A6,6,0,1,1,384.5,543.5A6,6,0,1,1,396.5,543.5"></path><path id="kity_path_269" fill="none" stroke="gray" d="M386,543.5L395,543.5"></path></g><path id="node_outline31" fill="rgb(238, 243, 246)" stroke="rgb(115, 161, 191)" d="M260.5,530.5h120a3,3,0,0,1,3,3v20a3,3,0,0,1,-3,3h-120a3,3,0,0,1,-3,-3v-20a3,3,0,0,1,3,-3z" stroke-width="1"></path><g id="node_text31" fill="black"><text id="kity_text_265" text-rendering="inherit" font-size="14" dy=".8em" y="534.4000000953674" x="277.5">12、关联关系</text></g></g><g id="minder_node32"><g id="node_expander31" style="cursor: pointer;" display="none"><path id="kity_path_276" fill="white" stroke="gray" d="M229.5,543.5A6,6,0,1,1,217.5,543.5A6,6,0,1,1,229.5,543.5"></path><path id="kity_path_277" fill="none" stroke="gray"></path></g><path id="node_outline32" fill="none" stroke="none" d="M119.5,532.5h93a5,5,0,0,1,5,5v12a5,5,0,0,1,-5,5h-93a5,5,0,0,1,-5,-5v-12a5,5,0,0,1,5,-5z" stroke-width="3"></path><g id="node_text32" fill="black"><text id="kity_text_273" text-rendering="inherit" font-size="12" dy=".8em" y="535.7000000476837" x="124.5">resultMap详解</text></g></g><g id="minder_node33"><g id="node_expander32" style="cursor: pointer;" display="none"><path id="kity_path_284" fill="white" stroke="gray" d="M396.5,609.5A6,6,0,1,1,384.5,609.5A6,6,0,1,1,396.5,609.5"></path><path id="kity_path_285" fill="none" stroke="gray"></path></g><path id="node_outline33" fill="rgb(238, 243, 246)" stroke="rgb(115, 161, 191)" d="M57.5,596.5h323a3,3,0,0,1,3,3v20a3,3,0,0,1,-3,3h-323a3,3,0,0,1,-3,-3v-20a3,3,0,0,1,3,-3z" stroke-width="1"></path><g id="node_text33" fill="black"><text id="kity_text_281" text-rendering="inherit" font-size="14" dy=".8em" y="600.4000000953674" x="74.5">13、逆向工程(Mybatis generator代码生成器)</text></g></g><g id="minder_node34"><g id="node_expander33" style="cursor: pointer;" display="none"><path id="kity_path_292" fill="white" stroke="gray" d="M396.5,675.5A6,6,0,1,1,384.5,675.5A6,6,0,1,1,396.5,675.5"></path><path id="kity_path_293" fill="none" stroke="gray"></path></g><path id="node_outline34" fill="rgb(238, 243, 246)" stroke="rgb(115, 161, 191)" d="M193.5,662.5h187a3,3,0,0,1,3,3v20a3,3,0,0,1,-3,3h-187a3,3,0,0,1,-3,-3v-20a3,3,0,0,1,3,-3z" stroke-width="1"></path><g id="node_text34" fill="black"><text id="kity_text_289" text-rendering="inherit" font-size="14" dy=".8em" y="666.4000000953674" x="210.5">14、Mybatis面试题梳理</text></g></g></g></g></svg>